<svg width="86" height="64" fill="none" xmlns="http://www.w3.org/2000/svg"><path opacity=".29" d="M34.39 9.234l-.846.532.007.012.008.01.832-.554zm3.49 8.066l.965-.263-.965.263zM33.3 47.82l-.842-.54-.004.006-.005.008.85.526zM16.297 62.208l-.895.447.434.867.88-.406-.42-.908zm-1.962-3.924l-.383-.924-.992.41.48.961.895-.447zm10.9-8.066l-.751-.66-.008.008-.007.009.766.643zM30.903 39.1l-.97-.242-.012.044-.007.046.989.152zm0-9.156l.948-.316-.537-1.613-1.148 1.253.737.676zm-25.07.872l-.69.723.008.009.009.008.673-.74zM6.05 6.4l.674.738.009-.007.008-.008L6.05 6.4zm73.248 2.834l-.847.532.007.012.008.01.832-.554zm3.488 8.066l.964-.263-.964.263zm-4.578 30.52l-.841-.54-.005.006-.005.008.85.526zM61.205 62.208l-.895.447.434.867.88-.406-.42-.908zm-1.962-3.924l-.383-.924-.992.41.48.961.895-.447zm10.9-8.066l-.751-.66-.008.008-.007.009.766.643zM75.81 39.1l-.97-.242-.012.044-.007.046.989.152zm0-9.156l.948-.316-.537-1.613-1.148 1.253.737.676zm-25.07.872l-.69.723.008.009.009.008.673-.74zM50.959 6.4l.674.738.008-.007.009-.008-.691-.723zM18.913 2.604c6.852 0 11.653 2.424 14.631 7.162l1.693-1.064C31.821 3.266 26.304.604 18.913.604v2zm14.646 7.185c1.38 2.07 2.504 4.654 3.355 7.774l1.93-.526c-.894-3.275-2.095-6.068-3.621-8.358l-1.664 1.11zm3.355 7.774c.847 3.107 1.273 6.361 1.273 9.765h2c0-3.572-.447-7.004-1.343-10.291l-1.93.526zm1.273 9.765c0 7.374-1.912 14.015-5.727 19.951l1.682 1.082c4.032-6.272 6.045-13.292 6.045-21.033h-2zM32.45 47.294C28.79 53.206 23.286 57.88 15.878 61.3l.838 1.816c7.706-3.557 13.537-8.474 17.435-14.77l-1.7-1.052zM17.191 61.76l-1.962-3.924-1.789.894 1.962 3.924 1.79-.894zm-2.474-2.553C19.087 57.4 22.85 54.612 26 50.861l-1.531-1.286c-2.953 3.515-6.457 6.105-10.517 7.785l.765 1.848zm11.268-8.33c3.29-3.738 5.289-7.614 5.906-11.626l-1.977-.304c-.545 3.545-2.326 7.081-5.43 10.61l1.501 1.32zm5.888-11.535c.453-1.814.684-3.567.684-5.257h-2c0 1.508-.206 3.097-.624 4.772l1.94.485zm.684-5.257a14.01 14.01 0 00-.706-4.458l-1.897.632c.4 1.2.603 2.474.603 3.826h2zm-2.391-4.818c-2.987 3.258-6.923 4.908-11.907 4.908v2c5.479 0 9.973-1.839 13.38-5.556l-1.473-1.352zm-11.907 4.908c-4.885 0-8.772-1.39-11.754-4.1l-1.345 1.48c3.413 3.103 7.81 4.62 13.099 4.62v-2zM6.523 30.093c-2.963-2.83-4.486-6.69-4.486-11.703h-2c0 5.45 1.674 9.874 5.105 13.15l1.381-1.447zM2.037 18.39c0-4.69 1.573-8.408 4.688-11.252L5.376 5.662C1.806 8.921.036 13.197.036 18.39h2zM6.742 7.123c3.132-2.996 7.16-4.519 12.17-4.519v-2C13.46.604 8.914 2.278 5.36 5.677l1.383 1.446zM63.82 2.604c6.852 0 11.653 2.424 14.631 7.162l1.693-1.064C76.73 3.266 71.212.604 63.821.604v2zm14.646 7.185c1.38 2.07 2.504 4.654 3.355 7.774l1.93-.526c-.894-3.275-2.095-6.068-3.621-8.358l-1.664 1.11zm3.355 7.774c.847 3.107 1.273 6.361 1.273 9.765h2c0-3.572-.447-7.004-1.344-10.291l-1.93.526zm1.273 9.765c0 7.374-1.912 14.015-5.727 19.951l1.682 1.082c4.032-6.272 6.045-13.292 6.045-21.033h-2zm-5.737 19.966c-3.66 5.912-9.164 10.587-16.572 14.006l.838 1.816c7.706-3.557 13.537-8.474 17.435-14.77l-1.7-1.052zM62.1 61.76l-1.962-3.924-1.789.894 1.962 3.924 1.79-.894zm-2.474-2.553c4.37-1.808 8.132-4.596 11.283-8.347l-1.531-1.286c-2.953 3.515-6.456 6.105-10.517 7.785l.765 1.848zm11.268-8.33c3.29-3.738 5.289-7.614 5.906-11.626l-1.977-.304c-.545 3.545-2.326 7.081-5.43 10.61l1.501 1.32zm5.888-11.535c.453-1.814.684-3.567.684-5.257h-2c0 1.508-.206 3.097-.624 4.772l1.94.485zm.684-5.257a14.01 14.01 0 00-.706-4.458l-1.897.632c.4 1.2.603 2.474.603 3.826h2zm-2.391-4.818c-2.987 3.258-6.923 4.908-11.907 4.908v2c5.479 0 9.973-1.839 13.38-5.556l-1.473-1.352zm-11.907 4.908c-4.885 0-8.772-1.39-11.754-4.1l-1.345 1.48c3.413 3.103 7.81 4.62 13.099 4.62v-2zM51.43 30.093c-2.963-2.83-4.486-6.69-4.486-11.703h-2c0 5.45 1.674 9.874 5.105 13.15l1.381-1.447zM46.945 18.39c0-4.69 1.573-8.408 4.688-11.252l-1.349-1.476c-3.57 3.26-5.34 7.535-5.34 12.728h2zM51.65 7.123c3.132-2.996 7.16-4.519 12.17-4.519v-2c-5.452 0-9.999 1.674-13.553 5.073l1.383 1.446z" fill="#964F4C"/></svg>