<svg width="303" height="69" viewBox="0 0 303 69" fill="none" xmlns="http://www.w3.org/2000/svg">
<path d="M0.199951 67.9999H11.32V67.4399C7.31995 66.9199 6.11995 65.2399 6.11995 61.1999V42.8399H6.35995L16.76 68.0399H18.2L27.52 42.8399H27.72V65.1599C27.72 66.7599 26.72 67.3199 23.88 67.4399V67.9999H37.68V67.4399C34.32 67.3199 33.52 66.6799 33.52 65.1599V42.9599C33.52 41.4399 34.32 40.7599 37.68 40.6399V40.1199H27.4799L19.92 60.6799H19.72L11.48 40.1199H0.199951V40.6399C3.63995 40.7199 5.11995 42.5599 5.11995 44.9599V61.1999C5.11995 65.2399 3.95995 66.9599 0.199951 67.4399V67.9999Z" fill="black"/>
<path d="M57.4028 64.3199C58.1628 66.4399 57.4428 67.2799 53.6028 67.4399V67.9999H67.9228V67.4399C64.9228 66.9999 64.3228 66.3599 63.4428 64.0399L54.4028 39.4799H51.6828L43.4028 60.9199C41.7628 65.0399 40.2428 66.7599 37.6428 67.4399V67.9999H47.0828V67.4399C43.3628 66.9199 42.7228 65.3999 44.3628 61.0799L45.7228 57.3999H54.9228L57.4028 64.3199ZM46.0428 56.5999L50.3628 45.0399H50.5628L54.6428 56.5999H46.0428Z" fill="black"/>
<path d="M68.365 67.9999H82.085C92.445 67.9999 96.645 61.0399 96.645 53.5599C96.645 45.7199 91.605 40.1199 81.445 40.1199H68.365V40.6399C71.685 40.7599 72.525 41.4399 72.525 42.9599V65.1599C72.525 66.6799 71.685 67.3199 68.365 67.4399V67.9999ZM78.365 67.2399V40.8399H80.765C87.085 40.8399 90.285 43.6799 90.285 53.9599C90.285 64.1999 87.805 67.2399 80.845 67.2399H78.365Z" fill="black"/>
<path d="M107.232 67.9999H121.072V67.4399C118.192 67.3199 117.232 66.7999 117.232 65.1599V53.9199H128.512V65.1599C128.512 66.7999 127.512 67.3199 124.632 67.4399V67.9999H138.512V67.4399C135.152 67.3199 134.352 66.7199 134.352 65.1599V42.9199C134.352 41.3999 135.152 40.7599 138.512 40.6399V40.1199H124.632V40.6399C127.512 40.7599 128.512 41.3199 128.512 42.9199V53.1199H117.232V42.9199C117.232 41.3199 118.192 40.7599 121.072 40.6399V40.1199H107.232V40.6399C110.552 40.7599 111.392 41.3999 111.392 42.9199V65.1599C111.392 66.7199 110.552 67.3199 107.232 67.4399V67.9999Z" fill="black"/>
<path d="M158.223 64.3199C158.983 66.4399 158.263 67.2799 154.423 67.4399V67.9999H168.743V67.4399C165.743 66.9999 165.143 66.3599 164.263 64.0399L155.223 39.4799H152.503L144.223 60.9199C142.583 65.0399 141.063 66.7599 138.463 67.4399V67.9999H147.903V67.4399C144.183 66.9199 143.543 65.3999 145.183 61.0799L146.543 57.3999H155.743L158.223 64.3199ZM146.863 56.5999L151.183 45.0399H151.383L155.463 56.5999H146.863Z" fill="black"/>
<path d="M172.25 67.9999H187.37V67.4399C183.81 67.3599 182.73 66.6799 182.73 65.1599V40.8399H183.69C186.77 40.8399 189.17 43.9199 191.97 49.3599L192.57 49.2799L192.37 40.1199H167.21L166.97 49.2799L167.57 49.3599C170.41 43.7999 172.85 40.8399 175.89 40.8399H176.89V65.1599C176.89 66.6799 175.77 67.3599 172.25 67.4399V67.9999Z" fill="black"/>
<path d="M200.727 67.9999H215.847V67.4399C212.287 67.3599 211.207 66.6799 211.207 65.1599V40.8399H212.167C215.247 40.8399 217.647 43.9199 220.447 49.3599L221.047 49.2799L220.847 40.1199H195.687L195.447 49.2799L196.047 49.3599C198.887 43.7999 201.327 40.8399 204.367 40.8399H205.367V65.1599C205.367 66.6799 204.247 67.3599 200.727 67.4399V67.9999Z" fill="black"/>
<path d="M223.99 67.9999H248.91L249.11 57.9599L248.51 57.8799C245.59 64.7599 243.75 67.2399 237.95 67.2399H233.99V53.8799H235.67C238.87 53.8799 240.71 55.2799 241.79 59.3999H242.31V47.7199H241.79C240.71 51.7999 238.87 53.1599 235.67 53.1599H233.99V40.8399H238.15C243.07 40.8399 244.59 43.4799 247.39 49.6799L247.99 49.6399L247.87 40.1199H223.99V40.6399C227.31 40.7599 228.15 41.4399 228.15 42.9599V65.1599C228.15 66.6799 227.31 67.3199 223.99 67.4399V67.9999Z" fill="black"/>
<path d="M262.584 53.5599V40.8399H264.864C269.864 40.8399 271.384 43.2399 271.384 47.2399C271.384 51.7599 270.304 53.5599 265.304 53.5599H262.584ZM262.584 54.2399H264.824C269.384 54.2399 270.464 55.5999 270.864 59.6399L271.184 63.1199C271.504 66.6399 272.344 68.1999 277.344 68.1999C278.664 68.1999 280.104 68.0799 281.584 67.8399V67.3599C278.264 67.2799 277.704 66.7599 277.224 63.5199L276.984 60.4399C276.464 56.6799 274.904 54.0799 269.024 53.8799V53.7599C275.304 52.8799 277.504 50.3199 277.504 46.8799C277.504 43.1999 274.544 40.1199 266.224 40.1199H252.584V40.6399C255.904 40.7599 256.744 41.4399 256.744 42.9599V65.1599C256.744 66.6799 255.904 67.3199 252.584 67.4399V67.9999H266.544V67.4399C263.624 67.3199 262.584 66.7599 262.584 65.1599V54.2399Z" fill="black"/>
<path d="M283.071 68.6799H283.551L285.911 66.6799C287.831 67.7599 290.751 68.5199 292.991 68.5199C299.871 68.5199 302.671 63.7999 302.671 59.1599C302.671 53.9599 298.511 52.2799 294.671 51.0799C289.991 49.5999 287.511 48.1199 287.511 44.9999C287.511 41.9999 289.911 40.3599 292.431 40.3599C295.551 40.3599 298.111 42.9199 300.751 48.3999H301.391V39.3599H300.911L299.151 41.1199C297.671 40.2799 295.391 39.5999 293.031 39.5999C287.431 39.5999 283.471 43.0399 283.471 48.3199C283.471 53.4799 287.711 55.0399 291.911 56.4399C296.711 58.0399 299.111 59.5999 299.111 62.8399C299.111 65.3599 297.231 67.7599 293.591 67.7599C289.631 67.7599 286.351 64.1199 283.711 58.5599H283.071V68.6799Z" fill="black"/>
<g opacity="0.3">
<circle cx="149.5" cy="1.5" r="1.5" fill="#23242C"/>
<circle cx="149.5" cy="7.5" r="1.5" fill="#23242C"/>
<circle cx="155.5" cy="1.5" r="1.5" fill="#23242C"/>
<circle cx="155.5" cy="7.5" r="1.5" fill="#23242C"/>
</g>
</svg>
