<svg width="266" height="25" fill="none" xmlns="http://www.w3.org/2000/svg"><path d="M19.975 24.224h9.038v-.455c-3.251-.423-4.227-1.788-4.227-5.072V3.776h.196l8.452 20.48h1.17l7.575-20.48h.162v18.14c0 1.3-.813 1.755-3.12 1.853v.455h11.215v-.455c-2.731-.098-3.381-.618-3.381-1.853V3.874c0-1.236.65-1.788 3.38-1.886v-.423h-8.289l-6.144 16.71h-.163l-6.696-16.71h-9.168v.423c2.796.065 3.999 1.56 3.999 3.51v13.2c0 3.283-.943 4.68-3.999 5.07v.456z" fill="#fff"/><path d="M66.465 21.233c.617 1.723.032 2.406-3.089 2.536v.455h11.638v-.455c-2.438-.358-2.925-.878-3.64-2.764l-7.348-19.96h-2.21l-6.73 17.425c-1.332 3.348-2.567 4.746-4.68 5.299v.455h7.671v-.455c-3.023-.423-3.543-1.658-2.21-5.17l1.105-2.99h7.477l2.016 5.624zm-9.233-6.274l3.511-9.395h.163l3.316 9.395h-6.99zm18.142 9.265h11.15c8.42 0 11.833-5.657 11.833-11.736 0-6.371-4.096-10.923-12.353-10.923h-10.63v.423c2.698.098 3.38.65 3.38 1.886v18.042c0 1.235-.682 1.755-3.38 1.853v.455zm8.127-.618V2.151h1.95c5.137 0 7.737 2.308 7.737 10.662 0 8.322-2.015 10.793-7.672 10.793h-2.015zm23.46.618h11.248v-.455c-2.34-.098-3.121-.52-3.121-1.853V12.78h9.168v9.135c0 1.332-.813 1.755-3.153 1.853v.455h11.28v-.455c-2.731-.098-3.381-.585-3.381-1.853V3.84c0-1.235.65-1.755 3.381-1.853v-.423h-11.28v.423c2.34.098 3.153.553 3.153 1.853v8.29h-9.168V3.84c0-1.3.781-1.755 3.121-1.853v-.423h-11.248v.423c2.699.098 3.381.618 3.381 1.853v18.075c0 1.267-.682 1.755-3.381 1.853v.455z" fill="#fff"/><path d="M148.402 21.233c.618 1.723.033 2.406-3.088 2.536v.455h11.638v-.455c-2.438-.358-2.926-.878-3.641-2.764l-7.347-19.96h-2.211l-6.729 17.425c-1.333 3.348-2.568 4.746-4.681 5.299v.455h7.672v-.455c-3.023-.423-3.543-1.658-2.211-5.17l1.106-2.99h7.477l2.015 5.624zm-9.232-6.274l3.511-9.395h.162l3.316 9.395h-6.989zm20.632 9.265h12.288v-.455c-2.893-.065-3.771-.618-3.771-1.853V2.15h.78c2.503 0 4.454 2.503 6.73 6.924l.487-.065-.162-7.445h-20.448l-.195 7.445.487.065c2.309-4.519 4.292-6.924 6.762-6.924h.813v19.765c0 1.235-.91 1.788-3.771 1.853v.455zm23.143 0h12.288v-.455c-2.893-.065-3.771-.618-3.771-1.853V2.15h.781c2.503 0 4.453 2.503 6.729 6.924l.487-.065-.162-7.445h-20.448l-.195 7.445.488.065c2.308-4.519 4.291-6.924 6.761-6.924h.813v19.765c0 1.235-.91 1.788-3.771 1.853v.455zm18.907 0h20.252l.163-8.16-.488-.065c-2.373 5.592-3.868 7.607-8.582 7.607h-3.218V12.748h1.365c2.601 0 4.096 1.138 4.974 4.487h.422V7.742h-.422c-.878 3.316-2.373 4.421-4.974 4.421h-1.365V2.151h3.381c3.998 0 5.233 2.145 7.509 7.184l.488-.033-.098-7.737h-19.407v.423c2.698.098 3.38.65 3.38 1.886v18.042c0 1.235-.682 1.755-3.38 1.853v.455zm31.365-11.736V2.151h1.853c4.064 0 5.299 1.95 5.299 5.2 0 3.674-.878 5.137-4.941 5.137h-2.211zm0 .553h1.821c3.705 0 4.583 1.105 4.908 4.389l.26 2.828c.26 2.86.943 4.128 5.007 4.128a21.76 21.76 0 003.446-.292v-.39c-2.699-.065-3.154-.488-3.544-3.121l-.195-2.503c-.423-3.056-1.69-5.17-6.469-5.332v-.097c5.104-.715 6.892-2.796 6.892-5.592 0-2.99-2.406-5.494-9.168-5.494H225.09v.423c2.698.098 3.381.65 3.381 1.886v18.042c0 1.235-.683 1.755-3.381 1.853v.455h11.345v-.455c-2.373-.098-3.218-.553-3.218-1.853V13.04zm16.65 11.735h.391l1.918-1.625c1.56.878 3.933 1.495 5.754 1.495 5.591 0 7.867-3.836 7.867-7.607 0-4.226-3.381-5.591-6.502-6.566-3.804-1.203-5.819-2.406-5.819-4.942 0-2.438 1.95-3.77 3.998-3.77 2.536 0 4.617 2.08 6.762 6.534h.52V.948h-.39l-1.43 1.43c-1.203-.683-3.056-1.235-4.974-1.235-4.551 0-7.769 2.796-7.769 7.087 0 4.193 3.445 5.461 6.859 6.599 3.901 1.3 5.851 2.568 5.851 5.201 0 2.048-1.528 3.999-4.486 3.999-3.218 0-5.884-2.959-8.029-7.477h-.521v8.224z" fill="#fff"/><g opacity=".3" fill="#FAF7F3"><circle cx="1.5" cy="10.5" r="1.5"/><circle cx="1.5" cy="16.5" r="1.5"/><circle cx="7.5" cy="10.5" r="1.5"/><circle cx="7.5" cy="16.5" r="1.5"/></g></svg>